# xmcd
#
# Track frame offsets:
#	150
#	17096
#	28459
#	40117
#	52946
#	68290
#	82787
#	96806
#	115455
#	131319
#	142428
#
# Disc length: 2134 seconds
#
# Revision: 1
# Processed by: cddbd v1.5.2PL0 Copyright (c) Steve Scherf et al.
# Submitted via: audiograbber 1.83.01
#
DISCID=8d08540b
DTITLE=Girls Guns and Glory - Sweet Nothings
DYEAR=2011
DGENRE=Americana
TTITLE0=Baby's Got A Dream
TTITLE1=Sweet Nothings
TTITLE2=Night Time
TTITLE3=Last Night I Dreamed
TTITLE4=Mary Anne
TTITLE5=Root Cellar
TTITLE6=1,000 Times
TTITLE7=This Old House
TTITLE8=Snake Skin Belt
TTITLE9=Not A Girl Left In The World
TTITLE10=Universe Began
EXTD=
EXTT0=
EXTT1=
EXTT2=
EXTT3=
EXTT4=
EXTT5=
EXTT6=
EXTT7=
EXTT8=
EXTT9=
EXTT10=
PLAYORDER=
